<?xml version="1.0" encoding="UTF-8" standalone="no"?>
<!DOCTYPE svg PUBLIC "-//W3C//DTD SVG 1.1//EN"
 "http://www.w3.org/Graphics/SVG/1.1/DTD/svg11.dtd">
<!-- Generated by graphviz version 2.42.4 (0)
 -->
<!-- Title: ER Pages: 1 -->
<svg width="781pt" height="472pt"
 viewBox="0.00 0.00 781.00 472.00" xmlns="http://www.w3.org/2000/svg" xmlns:xlink="http://www.w3.org/1999/xlink">
<g id="graph0" class="graph" transform="scale(1 1) rotate(0) translate(4 468)">
<title>ER</title>
<polygon fill="#ffffff" stroke="transparent" points="-4,4 -4,-468 777,-468 777,4 -4,4"/>
<g id="clust1" class="cluster">
<title>cluster_legend</title>
<polygon fill="#ffffff" stroke="#999999" stroke-dasharray="5,2" points="20,-8 20,-122 238,-122 238,-8 20,-8"/>
<text text-anchor="middle" x="129" y="-106.8" font-family="Arial" font-size="14.00">圖例 Legend</text>
</g>
<!-- legend -->
<g id="node1" class="node">
<title>legend</title>
<text text-anchor="start" x="42" y="-71.4" font-family="Arial" text-decoration="underline" font-size="12.00">username</text>
<text text-anchor="start" x="120.5" y="-70.4" font-family="Arial" font-size="12.00"> = Primary Key</text>
<text text-anchor="start" x="42" y="-49.4" font-family="Arial" font-size="12.00" fill="#1a56db">author_id</text>
<text text-anchor="start" x="120.5" y="-49.4" font-family="Arial" font-size="12.00"> = Foreign Key</text>
<text text-anchor="start" x="42" y="-29.4" font-family="Arial" font-style="italic" font-size="12.00">attribute</text>
<text text-anchor="start" x="104" y="-28.4" font-family="Arial" font-size="12.00"> = Optional / Nullable</text>
</g>
<!-- users -->
<g id="node2" class="node">
<title>users</title>
<polygon fill="#bfdbfe" stroke="transparent" points="9,-284 9,-309 249,-309 249,-284 9,-284"/>
<polygon fill="none" stroke="black" points="9,-284 9,-309 249,-309 249,-284 9,-284"/>
<text text-anchor="start" x="112.5" y="-294.4" font-family="Arial" font-weight="bold" font-size="12.00">users</text>
<polygon fill="none" stroke="black" points="9,-259 9,-284 134,-284 134,-259 9,-259"/>
<text text-anchor="start" x="15" y="-269.4" font-family="Arial" text-decoration="underline" font-size="12.00">id</text>
<polygon fill="none" stroke="black" points="134,-259 134,-284 249,-284 249,-259 134,-259"/>
<text text-anchor="start" x="176" y="-268.4" font-family="Arial" font-size="12.00">UUID</text>
<polygon fill="none" stroke="black" points="9,-234 9,-259 134,-259 134,-234 9,-234"/>
<text text-anchor="start" x="15" y="-243.4" font-family="Arial" font-size="12.00">username</text>
<polygon fill="none" stroke="black" points="134,-234 134,-259 249,-259 249,-234 134,-234"/>
<text text-anchor="start" x="140" y="-243.4" font-family="Arial" font-size="12.00">String(50) UNIQUE</text>
<polygon fill="none" stroke="black" points="9,-209 9,-234 134,-234 134,-209 9,-209"/>
<text text-anchor="start" x="15" y="-218.4" font-family="Arial" font-size="12.00">password_hash</text>
<polygon fill="none" stroke="black" points="134,-209 134,-234 249,-234 249,-209 134,-209"/>
<text text-anchor="start" x="161.5" y="-218.4" font-family="Arial" font-size="12.00">String(128)</text>
<polygon fill="none" stroke="black" points="9,-184 9,-209 134,-209 134,-184 9,-184"/>
<text text-anchor="start" x="15" y="-193.4" font-family="Arial" font-size="12.00">role</text>
<polygon fill="none" stroke="black" points="134,-184 134,-209 249,-209 249,-184 134,-184"/>
<text text-anchor="start" x="165" y="-193.4" font-family="Arial" font-size="12.00">String(10)</text>
<polygon fill="none" stroke="black" points="9,-159 9,-184 134,-184 134,-159 9,-159"/>
<text text-anchor="start" x="15" y="-168.4" font-family="Arial" font-size="12.00">requires_pw_change</text>
<polygon fill="none" stroke="black" points="134,-159 134,-184 249,-184 249,-159 134,-159"/>
<text text-anchor="start" x="168.5" y="-168.4" font-family="Arial" font-size="12.00">Boolean</text>
<polygon fill="none" stroke="black" points="9,-134 9,-159 134,-159 134,-134 9,-134"/>
<text text-anchor="start" x="15" y="-143.4" font-family="Arial" font-size="12.00">created_at</text>
<polygon fill="none" stroke="black" points="134,-134 134,-159 249,-159 249,-134 134,-134"/>
<text text-anchor="start" x="157" y="-143.4" font-family="Arial" font-size="12.00">DateTime(tz)</text>
<polygon fill="none" stroke="black" points="8,-133.5 8,-310.5 250,-310.5 250,-133.5 8,-133.5"/>
</g>
<!-- announcements -->
<g id="node3" class="node">
<title>announcements</title>
<polygon fill="#bfdbfe" stroke="transparent" points="347.5,-434 347.5,-459 497.5,-459 497.5,-434 347.5,-434"/>
<polygon fill="none" stroke="black" points="347.5,-434 347.5,-459 497.5,-459 497.5,-434 347.5,-434"/>
<text text-anchor="start" x="375.5" y="-444.4" font-family="Arial" font-weight="bold" font-size="12.00">announcements</text>
<polygon fill="none" stroke="black" points="347.5,-409 347.5,-434 416.5,-434 416.5,-409 347.5,-409"/>
<text text-anchor="start" x="353.5" y="-419.4" font-family="Arial" text-decoration="underline" font-size="12.00">id</text>
<polygon fill="none" stroke="black" points="416.5,-409 416.5,-434 497.5,-434 497.5,-409 416.5,-409"/>
<text text-anchor="start" x="441.5" y="-418.4" font-family="Arial" font-size="12.00">UUID</text>
<polygon fill="none" stroke="black" points="347.5,-384 347.5,-409 416.5,-409 416.5,-384 347.5,-384"/>
<text text-anchor="start" x="353.5" y="-393.4" font-family="Arial" font-size="12.00" fill="#1a56db">author_id</text>
<polygon fill="none" stroke="black" points="416.5,-384 416.5,-409 497.5,-409 497.5,-384 416.5,-384"/>
<text text-anchor="start" x="441.5" y="-393.4" font-family="Arial" font-size="12.00">UUID</text>
<polygon fill="none" stroke="black" points="347.5,-359 347.5,-384 416.5,-384 416.5,-359 347.5,-359"/>
<text text-anchor="start" x="353.5" y="-368.4" font-family="Arial" font-size="12.00">title</text>
<polygon fill="none" stroke="black" points="416.5,-359 416.5,-384 497.5,-384 497.5,-359 416.5,-359"/>
<text text-anchor="start" x="427" y="-368.4" font-family="Arial" font-size="12.00">String(200)</text>
<polygon fill="none" stroke="black" points="347.5,-334 347.5,-359 416.5,-359 416.5,-334 347.5,-334"/>
<text text-anchor="start" x="353.5" y="-343.4" font-family="Arial" font-size="12.00">content</text>
<polygon fill="none" stroke="black" points="416.5,-334 416.5,-359 497.5,-359 497.5,-334 416.5,-334"/>
<text text-anchor="start" x="446" y="-343.4" font-family="Arial" font-size="12.00">Text</text>
<polygon fill="none" stroke="black" points="347.5,-309 347.5,-334 416.5,-334 416.5,-309 347.5,-309"/>
<text text-anchor="start" x="353.5" y="-318.4" font-family="Arial" font-size="12.00">created_at</text>
<polygon fill="none" stroke="black" points="416.5,-309 416.5,-334 497.5,-334 497.5,-309 416.5,-309"/>
<text text-anchor="start" x="422.5" y="-318.4" font-family="Arial" font-size="12.00">DateTime(tz)</text>
<polygon fill="none" stroke="black" points="346.5,-308 346.5,-460 498.5,-460 498.5,-308 346.5,-308"/>
</g>
<!-- users&#45;&gt;announcements -->
<g id="edge1" class="edge">
<title>users&#45;&gt;announcements</title>
<path fill="none" stroke="black" d="M258.28,-293.29C282.28,-306.63 306.93,-320.33 329.56,-332.9"/>
<polygon fill="black" stroke="black" points="328.02,-336.05 338.46,-337.85 331.42,-329.93 328.02,-336.05"/>
<text text-anchor="middle" x="296.5" y="-325.2" font-family="Arial" font-size="11.00">1 &#160;&#160;&#160;&#160;&#160;&#160;&#160;&#160;&#160;*</text>
</g>
<!-- song_proposals -->
<g id="node4" class="node">
<title>song_proposals</title>
<polygon fill="#bfdbfe" stroke="transparent" points="344.5,-207 344.5,-232 501.5,-232 501.5,-207 344.5,-207"/>
<polygon fill="none" stroke="black" points="344.5,-207 344.5,-232 501.5,-232 501.5,-207 344.5,-207"/>
<text text-anchor="start" x="376" y="-217.4" font-family="Arial" font-weight="bold" font-size="12.00">song_proposals</text>
<polygon fill="none" stroke="black" points="344.5,-182 344.5,-207 420.5,-207 420.5,-182 344.5,-182"/>
<text text-anchor="start" x="350.5" y="-192.4" font-family="Arial" text-decoration="underline" font-size="12.00">id</text>
<polygon fill="none" stroke="black" points="420.5,-182 420.5,-207 501.5,-207 501.5,-182 420.5,-182"/>
<text text-anchor="start" x="445.5" y="-191.4" font-family="Arial" font-size="12.00">UUID</text>
<polygon fill="none" stroke="black" points="344.5,-157 344.5,-182 420.5,-182 420.5,-157 344.5,-157"/>
<text text-anchor="start" x="350.5" y="-166.4" font-family="Arial" font-size="12.00" fill="#1a56db">initiator_id</text>
<polygon fill="none" stroke="black" points="420.5,-157 420.5,-182 501.5,-182 501.5,-157 420.5,-157"/>
<text text-anchor="start" x="445.5" y="-166.4" font-family="Arial" font-size="12.00">UUID</text>
<polygon fill="none" stroke="black" points="344.5,-132 344.5,-157 420.5,-157 420.5,-132 344.5,-132"/>
<text text-anchor="start" x="350.5" y="-141.4" font-family="Arial" font-size="12.00">song_name</text>
<polygon fill="none" stroke="black" points="420.5,-132 420.5,-157 501.5,-157 501.5,-132 420.5,-132"/>
<text text-anchor="start" x="431" y="-141.4" font-family="Arial" font-size="12.00">String(200)</text>
<polygon fill="none" stroke="black" points="344.5,-107 344.5,-132 420.5,-132 420.5,-107 344.5,-107"/>
<text text-anchor="start" x="350.5" y="-116.4" font-family="Arial" font-size="12.00">created_at</text>
<polygon fill="none" stroke="black" points="420.5,-107 420.5,-132 501.5,-132 501.5,-107 420.5,-107"/>
<text text-anchor="start" x="426.5" y="-116.4" font-family="Arial" font-size="12.00">DateTime(tz)</text>
<polygon fill="none" stroke="black" points="343,-106.5 343,-233.5 502,-233.5 502,-106.5 343,-106.5"/>
</g>
<!-- users&#45;&gt;song_proposals -->
<g id="edge2" class="edge">
<title>users&#45;&gt;song_proposals</title>
<path fill="none" stroke="black" d="M258.28,-199.12C280.57,-195.14 303.4,-191.07 324.67,-187.27"/>
<polygon fill="black" stroke="black" points="325.42,-190.7 334.65,-185.49 324.19,-183.8 325.42,-190.7"/>
<text text-anchor="middle" x="296.5" y="-197.2" font-family="Arial" font-size="11.00">1 &#160;&#160;&#160;&#160;&#160;&#160;&#160;&#160;&#160;*</text>
</g>
<!-- song_members -->
<g id="node5" class="node">
<title>song_members</title>
<polygon fill="#fde68a" stroke="transparent" points="606,-287 606,-312 754,-312 754,-287 606,-287"/>
<polygon fill="none" stroke="black" points="606,-287 606,-312 754,-312 754,-287 606,-287"/>
<text text-anchor="start" x="635" y="-297.4" font-family="Arial" font-weight="bold" font-size="12.00">song_members</text>
<polygon fill="none" stroke="black" points="606,-262 606,-287 682,-287 682,-262 606,-262"/>
<text text-anchor="start" x="612" y="-272.4" font-family="Arial" text-decoration="underline" font-size="12.00" fill="#1a56db">proposal_id</text>
<polygon fill="none" stroke="black" points="682,-262 682,-287 754,-287 754,-262 682,-262"/>
<text text-anchor="start" x="702.5" y="-271.4" font-family="Arial" font-size="12.00">UUID</text>
<polygon fill="none" stroke="black" points="606,-237 606,-262 682,-262 682,-237 606,-237"/>
<text text-anchor="start" x="612" y="-247.4" font-family="Arial" text-decoration="underline" font-size="12.00" fill="#1a56db">user_id</text>
<polygon fill="none" stroke="black" points="682,-237 682,-262 754,-262 754,-237 682,-237"/>
<text text-anchor="start" x="702.5" y="-246.4" font-family="Arial" font-size="12.00">UUID</text>
<polygon fill="none" stroke="black" points="606,-212 606,-237 682,-237 682,-212 606,-212"/>
<text text-anchor="start" x="612" y="-221.4" font-family="Arial" font-size="12.00">instrument</text>
<polygon fill="none" stroke="black" points="682,-212 682,-237 754,-237 754,-212 682,-212"/>
<text text-anchor="start" x="688" y="-221.4" font-family="Arial" font-size="12.00">String(100)</text>
<polygon fill="none" stroke="black" points="605,-211 605,-313 755,-313 755,-211 605,-211"/>
</g>
<!-- users&#45;&gt;song_members -->
<g id="edge3" class="edge">
<title>users&#45;&gt;song_members</title>
<path fill="none" stroke="black" d="M258.06,-239.17C283.52,-242.15 310.08,-244.94 335,-247 420.17,-254.04 517.5,-257.89 586.85,-259.93"/>
<polygon fill="black" stroke="black" points="586.77,-263.43 596.87,-260.21 586.97,-256.43 586.77,-263.43"/>
<text text-anchor="middle" x="422.5" y="-260.2" font-family="Arial" font-size="11.00">1 &#160;&#160;&#160;&#160;&#160;&#160;&#160;&#160;&#160;*</text>
</g>
<!-- bookings -->
<g id="node6" class="node">
<title>bookings</title>
<polygon fill="#bfdbfe" stroke="transparent" points="596,-135 596,-160 764,-160 764,-135 596,-135"/>
<polygon fill="none" stroke="black" points="596,-135 596,-160 764,-160 764,-135 596,-135"/>
<text text-anchor="start" x="652.5" y="-145.4" font-family="Arial" font-weight="bold" font-size="12.00">bookings</text>
<polygon fill="none" stroke="black" points="596,-110 596,-135 692,-135 692,-110 596,-110"/>
<text text-anchor="start" x="602" y="-120.4" font-family="Arial" text-decoration="underline" font-size="12.00">id</text>
<polygon fill="none" stroke="black" points="692,-110 692,-135 764,-135 764,-110 692,-110"/>
<text text-anchor="start" x="712.5" y="-119.4" font-family="Arial" font-size="12.00">UUID</text>
<polygon fill="none" stroke="black" points="596,-85 596,-110 692,-110 692,-85 596,-85"/>
<text text-anchor="start" x="602" y="-94.4" font-family="Arial" font-size="12.00" fill="#1a56db">user_id</text>
<polygon fill="none" stroke="black" points="692,-85 692,-110 764,-110 764,-85 692,-85"/>
<text text-anchor="start" x="712.5" y="-94.4" font-family="Arial" font-size="12.00">UUID</text>
<polygon fill="none" stroke="black" points="596,-60 596,-85 692,-85 692,-60 596,-60"/>
<text text-anchor="start" x="602" y="-69.4" font-family="Arial" font-size="12.00" fill="#1a56db">proposal_id</text>
<polygon fill="none" stroke="black" points="692,-60 692,-85 764,-85 764,-60 692,-60"/>
<text text-anchor="start" x="712.5" y="-69.4" font-family="Arial" font-size="12.00">UUID</text>
<polygon fill="none" stroke="black" points="596,-35 596,-60 692,-60 692,-35 596,-35"/>
<text text-anchor="start" x="602" y="-44.4" font-family="Arial" font-size="12.00">booking_period</text>
<polygon fill="none" stroke="black" points="692,-35 692,-60 764,-60 764,-35 692,-35"/>
<text text-anchor="start" x="698" y="-44.4" font-family="Arial" font-size="12.00">TSRANGE</text>
<polygon fill="none" stroke="black" points="596,-10 596,-35 692,-35 692,-10 596,-10"/>
<text text-anchor="start" x="602" y="-19.4" font-family="Arial" font-size="12.00">status</text>
<polygon fill="none" stroke="black" points="692,-10 692,-35 764,-35 764,-10 692,-10"/>
<text text-anchor="start" x="701.5" y="-19.4" font-family="Arial" font-size="12.00">String(20)</text>
<polygon fill="none" stroke="black" points="595,-9 595,-161 765,-161 765,-9 595,-9"/>
</g>
<!-- users&#45;&gt;bookings -->
<g id="edge5" class="edge">
<title>users&#45;&gt;bookings</title>
<path fill="none" stroke="black" d="M258.26,-129.41C293.63,-104.78 325.07,-84.08 335,-81 413.55,-56.59 507.15,-59.61 576.87,-67.6"/>
<polygon fill="black" stroke="black" points="576.63,-71.09 586.98,-68.81 577.47,-64.14 576.63,-71.09"/>
<text text-anchor="middle" x="422.5" y="-84.2" font-family="Arial" font-size="11.00">1 &#160;&#160;&#160;&#160;&#160;&#160;&#160;&#160;&#160;*</text>
</g>
<!-- song_proposals&#45;&gt;song_members -->
<g id="edge4" class="edge">
<title>song_proposals&#45;&gt;song_members</title>
<path fill="none" stroke="black" d="M510,-201.15C534.9,-210.11 562.15,-219.93 587.36,-229"/>
<polygon fill="black" stroke="black" points="586.31,-232.34 596.91,-232.44 588.68,-225.76 586.31,-232.34"/>
<text text-anchor="middle" x="548.5" y="-224.2" font-family="Arial" font-size="11.00">1 &#160;&#160;&#160;&#160;&#160;&#160;&#160;&#160;&#160;*</text>
</g>
<!-- song_proposals&#45;&gt;bookings -->
<g id="edge6" class="edge">
<title>song_proposals&#45;&gt;bookings</title>
<path fill="none" stroke="black" d="M510,-141.22C531.66,-134.02 555.1,-126.22 577.42,-118.8"/>
<polygon fill="black" stroke="black" points="578.52,-122.12 586.91,-115.64 576.31,-115.47 578.52,-122.12"/>
<text text-anchor="middle" x="548.5" y="-138.2" font-family="Arial" font-size="11.00">1 &#160;&#160;&#160;&#160;&#160;&#160;&#160;&#160;&#160;*</text>
</g>
</g>
</svg>
